<mxfile host="app.diagrams.net" agent="Mozilla/5.0 (Windows NT 10.0; Win64; x64) AppleWebKit/537.36 (KHTML, like Gecko) Chrome/135.0.0.0 Safari/537.36" version="26.2.13">
  <diagram name="Page-1" id="2j9ujwj46-sfk4HVsLTO">
    <mxGraphModel dx="874" dy="439" grid="1" gridSize="10" guides="1" tooltips="1" connect="1" arrows="1" fold="1" page="1" pageScale="1" pageWidth="827" pageHeight="1169" math="0" shadow="0">
      <root>
        <mxCell id="0" />
        <mxCell id="1" parent="0" />
        <mxCell id="-hC3rhzuI1-nbQPA_fe_-1" value="Microservice UI" style="rounded=1;whiteSpace=wrap;html=1;fillColor=#fa6800;fontColor=#000000;strokeColor=#C73500;" vertex="1" parent="1">
          <mxGeometry x="160" y="100" width="120" height="60" as="geometry" />
        </mxCell>
        <mxCell id="-hC3rhzuI1-nbQPA_fe_-2" value="Microservice" style="rounded=1;whiteSpace=wrap;html=1;fillColor=#1ba1e2;fontColor=#ffffff;strokeColor=#006EAF;" vertex="1" parent="1">
          <mxGeometry x="430" y="100" width="120" height="60" as="geometry" />
        </mxCell>
        <mxCell id="-hC3rhzuI1-nbQPA_fe_-3" value="Microservice" style="rounded=1;whiteSpace=wrap;html=1;fillColor=#008a00;fontColor=#ffffff;strokeColor=#005700;" vertex="1" parent="1">
          <mxGeometry x="160" y="210" width="120" height="60" as="geometry" />
        </mxCell>
        <mxCell id="-hC3rhzuI1-nbQPA_fe_-4" value="Microservice" style="rounded=1;whiteSpace=wrap;html=1;fillColor=#1ba1e2;fontColor=#ffffff;strokeColor=#006EAF;" vertex="1" parent="1">
          <mxGeometry x="340" y="210" width="120" height="60" as="geometry" />
        </mxCell>
        <mxCell id="-hC3rhzuI1-nbQPA_fe_-5" value="Microservice" style="rounded=1;whiteSpace=wrap;html=1;fillColor=#fa6800;fontColor=#000000;strokeColor=#C73500;" vertex="1" parent="1">
          <mxGeometry x="540" y="210" width="120" height="60" as="geometry" />
        </mxCell>
        <mxCell id="-hC3rhzuI1-nbQPA_fe_-6" value="" style="shape=cylinder3;whiteSpace=wrap;html=1;boundedLbl=1;backgroundOutline=1;size=15;fillColor=#dae8fc;strokeColor=#6c8ebf;gradientColor=#7ea6e0;" vertex="1" parent="1">
          <mxGeometry x="190" y="310" width="60" height="80" as="geometry" />
        </mxCell>
        <mxCell id="-hC3rhzuI1-nbQPA_fe_-7" value="" style="shape=cylinder3;whiteSpace=wrap;html=1;boundedLbl=1;backgroundOutline=1;size=15;fillColor=#dae8fc;gradientColor=#7ea6e0;strokeColor=#6c8ebf;" vertex="1" parent="1">
          <mxGeometry x="370" y="310" width="60" height="80" as="geometry" />
        </mxCell>
        <mxCell id="-hC3rhzuI1-nbQPA_fe_-8" value="" style="shape=cylinder3;whiteSpace=wrap;html=1;boundedLbl=1;backgroundOutline=1;size=15;fillColor=#dae8fc;gradientColor=#7ea6e0;strokeColor=#6c8ebf;" vertex="1" parent="1">
          <mxGeometry x="570" y="310" width="60" height="80" as="geometry" />
        </mxCell>
        <mxCell id="-hC3rhzuI1-nbQPA_fe_-9" value="" style="endArrow=classic;html=1;rounded=0;entryX=0.5;entryY=0;entryDx=0;entryDy=0;" edge="1" parent="1" target="-hC3rhzuI1-nbQPA_fe_-3">
          <mxGeometry width="50" height="50" relative="1" as="geometry">
            <mxPoint x="220" y="160" as="sourcePoint" />
            <mxPoint x="270" y="110" as="targetPoint" />
          </mxGeometry>
        </mxCell>
        <mxCell id="-hC3rhzuI1-nbQPA_fe_-10" value="" style="endArrow=classic;html=1;rounded=0;entryX=0.5;entryY=0;entryDx=0;entryDy=0;" edge="1" parent="1" target="-hC3rhzuI1-nbQPA_fe_-4">
          <mxGeometry width="50" height="50" relative="1" as="geometry">
            <mxPoint x="489.5" y="160" as="sourcePoint" />
            <mxPoint x="489.5" y="210" as="targetPoint" />
          </mxGeometry>
        </mxCell>
        <mxCell id="-hC3rhzuI1-nbQPA_fe_-11" value="" style="endArrow=classic;html=1;rounded=0;entryX=0.5;entryY=0;entryDx=0;entryDy=0;" edge="1" parent="1" target="-hC3rhzuI1-nbQPA_fe_-5">
          <mxGeometry width="50" height="50" relative="1" as="geometry">
            <mxPoint x="490" y="160" as="sourcePoint" />
            <mxPoint x="410" y="220" as="targetPoint" />
          </mxGeometry>
        </mxCell>
        <mxCell id="-hC3rhzuI1-nbQPA_fe_-12" value="" style="endArrow=classic;html=1;rounded=0;entryX=0.5;entryY=0;entryDx=0;entryDy=0;entryPerimeter=0;" edge="1" parent="1">
          <mxGeometry width="50" height="50" relative="1" as="geometry">
            <mxPoint x="210" y="270" as="sourcePoint" />
            <mxPoint x="210" y="310" as="targetPoint" />
          </mxGeometry>
        </mxCell>
        <mxCell id="-hC3rhzuI1-nbQPA_fe_-13" value="" style="endArrow=classic;html=1;rounded=0;entryX=0.5;entryY=1;entryDx=0;entryDy=0;" edge="1" parent="1" target="-hC3rhzuI1-nbQPA_fe_-3">
          <mxGeometry width="50" height="50" relative="1" as="geometry">
            <mxPoint x="220" y="310" as="sourcePoint" />
            <mxPoint x="270" y="260" as="targetPoint" />
          </mxGeometry>
        </mxCell>
        <mxCell id="-hC3rhzuI1-nbQPA_fe_-14" value="" style="endArrow=classic;html=1;rounded=0;entryX=0.5;entryY=0;entryDx=0;entryDy=0;entryPerimeter=0;" edge="1" parent="1">
          <mxGeometry width="50" height="50" relative="1" as="geometry">
            <mxPoint x="390" y="270" as="sourcePoint" />
            <mxPoint x="390" y="310" as="targetPoint" />
          </mxGeometry>
        </mxCell>
        <mxCell id="-hC3rhzuI1-nbQPA_fe_-15" value="" style="endArrow=classic;html=1;rounded=0;entryX=0.5;entryY=1;entryDx=0;entryDy=0;" edge="1" parent="1">
          <mxGeometry width="50" height="50" relative="1" as="geometry">
            <mxPoint x="400" y="310" as="sourcePoint" />
            <mxPoint x="400" y="270" as="targetPoint" />
          </mxGeometry>
        </mxCell>
        <mxCell id="-hC3rhzuI1-nbQPA_fe_-17" value="" style="endArrow=classic;html=1;rounded=0;entryX=0.5;entryY=1;entryDx=0;entryDy=0;" edge="1" parent="1">
          <mxGeometry width="50" height="50" relative="1" as="geometry">
            <mxPoint x="610" y="310" as="sourcePoint" />
            <mxPoint x="610" y="270" as="targetPoint" />
          </mxGeometry>
        </mxCell>
        <mxCell id="-hC3rhzuI1-nbQPA_fe_-19" value="" style="endArrow=classic;html=1;rounded=0;entryX=0.5;entryY=0;entryDx=0;entryDy=0;entryPerimeter=0;" edge="1" parent="1">
          <mxGeometry width="50" height="50" relative="1" as="geometry">
            <mxPoint x="590" y="270" as="sourcePoint" />
            <mxPoint x="590" y="310" as="targetPoint" />
          </mxGeometry>
        </mxCell>
      </root>
    </mxGraphModel>
  </diagram>
</mxfile>
